<svg width="178" height="52" viewBox="0 0 178 52" fill="none" xmlns="http://www.w3.org/2000/svg">
<path d="M131.24 39.6977L119.419 11.0245C119.326 10.7629 119.277 10.4876 119.274 10.2098C119.25 9.62181 119.459 9.04815 119.854 8.61222C120.057 8.40482 120.302 8.24318 120.572 8.13815C120.842 8.03311 121.132 7.98711 121.421 8.00323C121.86 8.00827 122.287 8.15041 122.641 8.40975C123.013 8.68588 123.304 9.05679 123.484 9.48379L134.724 37.548L145.965 9.48379C146.144 9.05658 146.435 8.68553 146.807 8.40975C147.161 8.15041 147.587 8.00827 148.026 8.00323C148.316 7.98688 148.606 8.03277 148.877 8.13781C149.147 8.24286 149.392 8.40461 149.595 8.61222C149.99 9.04815 150.199 9.62181 150.175 10.2098C150.173 10.4871 150.123 10.7618 150.03 11.0229L138.21 39.6977C137.544 41.1798 136.554 41.9122 135.247 41.9122H134.202C132.896 41.9059 131.907 41.1798 131.24 39.6977Z" fill="white"/>
<path d="M155.2 41.0342C154.999 40.8321 154.841 40.5913 154.736 40.3265C154.632 40.0617 154.581 39.7783 154.589 39.4935V10.4423C154.579 9.85978 154.798 9.29658 155.2 8.87472C155.396 8.66574 155.635 8.50119 155.901 8.39208C156.166 8.28296 156.452 8.23179 156.738 8.242H175.937C176.208 8.23441 176.478 8.28481 176.728 8.38982C176.979 8.49484 177.204 8.65206 177.389 8.85099C177.586 9.03769 177.742 9.26334 177.847 9.5136C177.952 9.76386 178.004 10.0333 177.999 10.3047C178.006 10.572 177.955 10.8377 177.85 11.0834C177.745 11.3292 177.587 11.5492 177.389 11.7283C176.999 12.1036 176.477 12.3095 175.937 12.3009H158.946V22.8784H174.222C174.494 22.8711 174.764 22.9218 175.014 23.0271C175.265 23.1323 175.49 23.2898 175.674 23.4889C175.869 23.6768 176.024 23.9024 176.129 24.1521C176.234 24.4018 176.287 24.6702 176.285 24.941C176.292 25.2083 176.241 25.474 176.136 25.7198C176.03 25.9655 175.873 26.1855 175.674 26.3646C175.483 26.5526 175.256 26.7006 175.006 26.8003C174.757 26.8999 174.491 26.9491 174.222 26.9452H158.946V37.578H175.937C176.208 37.5699 176.479 37.6202 176.729 37.7255C176.98 37.8309 177.204 37.9888 177.389 38.1886C177.586 38.3748 177.742 38.6002 177.847 38.8502C177.952 39.1003 178.004 39.3695 177.999 39.6407C178.006 39.908 177.955 40.1737 177.85 40.4194C177.745 40.6652 177.587 40.8852 177.389 41.0643C177.001 41.4425 176.479 41.6513 175.937 41.6448H156.738C156.453 41.6659 156.166 41.6219 155.899 41.5162C155.632 41.4104 155.393 41.2456 155.2 41.0342Z" fill="white"/>
<path d="M122.09 38.8847L110.271 10.2099C109.605 8.72934 108.611 8.0033 107.309 8.0033H106.262C104.954 8.0033 103.967 8.72934 103.3 10.2178L98.1582 22.714H94.2676C93.7062 22.7173 93.1686 22.9419 92.7716 23.3389C92.3746 23.736 92.1501 24.2736 92.1468 24.8352V24.8637C92.1497 25.4253 92.3741 25.9632 92.7712 26.3604C93.1683 26.7575 93.706 26.9819 94.2676 26.9848H96.3584L91.4556 38.8958C91.3624 39.1568 91.3132 39.4316 91.3101 39.7088C91.2867 40.2969 91.4952 40.8706 91.8906 41.3064C92.0934 41.5142 92.3383 41.6762 92.6089 41.7815C92.8795 41.8869 93.1695 41.933 93.4594 41.917C93.8981 41.9105 94.324 41.7685 94.6788 41.5105C95.0506 41.2334 95.3416 40.8621 95.5218 40.4349L100.923 26.9896H104.638C105.199 26.9863 105.737 26.7617 106.134 26.3646C106.531 25.9676 106.755 25.43 106.759 24.8684V24.7972C106.756 24.2355 106.531 23.6977 106.134 23.3005C105.737 22.9034 105.199 22.6789 104.638 22.676H102.629L106.784 12.3627L118.024 40.4269C118.203 40.8542 118.493 41.2252 118.865 41.501C119.22 41.7606 119.647 41.9028 120.086 41.9075C120.376 41.9236 120.666 41.8776 120.936 41.7726C121.206 41.6676 121.451 41.5059 121.654 41.2985C122.049 40.8621 122.258 40.2879 122.234 39.6993C122.247 39.4205 122.197 39.1424 122.09 38.8847Z" fill="white"/>
<path d="M86.7744 38.8846L74.9555 10.2098C74.2912 8.72922 73.298 8.00317 71.9901 8.00317H70.9447C69.6383 8.00317 68.6515 8.72922 67.9825 10.2177L62.8425 22.7139H58.9503C58.3889 22.7176 57.8517 22.9423 57.4547 23.3393C57.0578 23.7363 56.8332 24.2736 56.8294 24.8351V24.8635C56.8361 25.423 57.062 25.9576 57.4586 26.3522C57.8552 26.7468 58.3908 26.97 58.9503 26.9737H61.0411L56.1383 38.8846C56.0451 39.1457 55.9959 39.4204 55.9928 39.6976C55.969 40.2857 56.1775 40.8596 56.5732 41.2952C56.7761 41.503 57.021 41.665 57.2916 41.7704C57.5622 41.8757 57.8522 41.9218 58.1421 41.9058C58.5808 41.8993 59.0067 41.7573 59.3615 41.4993C59.7332 41.2222 60.0242 40.8509 60.2044 40.4237L65.6054 26.9784H69.3473C69.9088 26.9751 70.4463 26.7505 70.8433 26.3534C71.2404 25.9564 71.4649 25.4188 71.4682 24.8572V24.7971C71.4653 24.2354 71.2409 23.6976 70.8438 23.3004C70.4467 22.9032 69.9089 22.6788 69.3473 22.6759H67.3435L71.4682 12.361L82.7082 40.4237C82.8874 40.8515 83.1786 41.2231 83.5512 41.4993C83.906 41.7573 84.3319 41.8993 84.7706 41.9058C85.0604 41.9214 85.3503 41.8751 85.6208 41.7698C85.8914 41.6645 86.1364 41.5027 86.3394 41.2952C86.7347 40.8593 86.9431 40.2856 86.9199 39.6976C86.9306 39.4193 86.8809 39.1419 86.7744 38.8846Z" fill="white"/>
<path d="M35.9871 17.4478C35.7978 7.62124 27.5914 -0.183876 17.6528 0.00329723C7.97926 0.181112 0.189306 7.89264 0.00946536 17.4478C0.00946536 17.4946 0 17.5414 0 17.5789V17.8503V50.016C0 51.1109 0.899205 51.9906 1.99718 51.9906C3.09516 51.9906 3.99436 51.1016 3.99436 50.016V44.2697C3.99436 43.1748 4.89357 42.2951 5.99155 42.2951C7.08952 42.2951 7.98873 43.1841 7.98873 44.2697V46.9931C8.01713 48.0881 8.9258 48.9491 10.0332 48.9304C11.1028 48.9116 11.9642 48.0506 11.9926 46.9931V44.2697C11.9926 43.1748 12.8918 42.2951 13.9897 42.2951C15.0972 42.2951 15.9869 43.1841 15.9869 44.2697V45.0184C15.9869 46.1134 16.8861 46.9931 17.9841 46.9931C19.0915 46.9931 19.9813 46.104 19.9813 45.0184V44.2697C20.0097 43.1748 20.9184 42.3138 22.0258 42.3325C23.0954 42.3512 23.9567 43.2122 23.9851 44.2697V46.9931C23.9851 48.0881 24.8843 48.9678 25.9823 48.9678C27.0803 48.9678 27.9984 48.0974 27.9984 47.0025V44.2791C27.9984 43.1841 28.8976 42.3044 29.9956 42.3044C31.103 42.3044 31.9928 43.1935 31.9928 44.2791V50.0253C31.9928 51.1203 32.892 52 33.99 52C35.0879 52 35.9871 51.1109 35.9871 50.0253V17.5882C35.9966 17.5414 35.9966 17.4946 35.9871 17.4478ZM11.3584 20.3022C9.58837 20.3022 8.15911 18.6832 8.15911 16.6711C8.15911 14.659 9.59783 13.0399 11.3584 13.0399C13.1189 13.0399 14.5577 14.659 14.5577 16.6711C14.5577 18.6832 13.1284 20.3022 11.3584 20.3022ZM18.1356 25.4308C16.5264 25.4308 15.2297 24.4855 15.2297 23.3157C15.2297 22.1459 16.5359 22.8571 18.1356 22.8571C19.7352 22.8571 21.0414 22.1552 21.0414 23.3157C21.0414 24.4762 19.7447 25.4214 18.1356 25.4308ZM24.6382 20.3022C22.8682 20.3022 21.4389 18.6832 21.4389 16.6711C21.4389 14.659 22.8682 13.0399 24.6382 13.0399C26.4082 13.0399 27.8375 14.659 27.8375 16.6711C27.8375 18.6832 26.3988 20.3022 24.6382 20.3022Z" fill="white"/>
</svg>
