<svg width="52" height="52" viewBox="0 0 52 52" fill="none" xmlns="http://www.w3.org/2000/svg">
<g clip-path="url(#clip0_241_400)">
<path d="M12.9384 26L12.9593 33.6682L19.475 37.5024V41.9918L9.14612 35.9339V23.7576L12.9384 26ZM12.9384 18.3317V22.8002L9.1438 20.5555V16.087L12.9384 13.8423L16.7517 16.087L12.9384 18.3317ZM22.1961 16.087L25.9908 13.8423L29.804 16.087L25.9908 18.3317L22.1961 16.087Z" fill="white"/>
<path d="M15.6804 32.0788V27.5894L19.4751 29.8341V34.3026L15.6804 32.0788ZM22.1961 39.1104L25.9908 41.3551L29.804 39.1104V43.5789L25.9908 45.8236L22.1961 43.5789V39.1104ZM35.2461 16.087L39.0408 13.8423L42.854 16.087V20.5555L39.0408 22.8002V18.3317L35.2461 16.087ZM39.0408 33.6682L39.0617 26L42.8563 23.7553V35.9315L32.5274 41.9895V37.5001L39.0408 33.6682Z" fill="white"/>
<path d="M36.3197 32.0789L32.525 34.3027V29.8342L36.3197 27.5895V32.0789Z" fill="white"/>
<path d="M36.3197 19.9212L36.3406 24.4106L29.8063 28.2447V35.9316L26.0117 38.1554L22.217 35.9316V28.2447L15.6827 24.4106V19.9212L19.4936 17.6765L25.9884 21.5292L32.5227 17.6765L36.3359 19.9212H36.3197ZM15.6804 12.2552L25.9908 6.17639L36.3197 12.2552L32.5251 14.4999L25.9908 10.6472L19.4751 14.4999L15.6804 12.2552Z" fill="white"/>
</g>
<defs>
<clipPath id="clip0_241_400">
<rect width="52" height="52" fill="white"/>
</clipPath>
</defs>
</svg>
