<svg width="236" height="52" viewBox="0 0 236 52" fill="none" xmlns="http://www.w3.org/2000/svg">
<path fill-rule="evenodd" clip-rule="evenodd" d="M231.045 26.0725C231.045 23.0243 229.247 20.7502 226.381 20.7502C223.515 20.7502 221.717 23.0243 221.717 26.0725C221.717 29.1207 223.515 31.3948 226.381 31.3948C229.247 31.4432 231.045 29.1207 231.045 26.0725ZM230.899 18.7181V10.7347C230.899 10.2025 231.239 9.76702 231.774 9.62187L236 8.50903V35.5075H231.288V33.2334C230.122 34.9752 227.984 35.9429 225.312 35.9429C219.822 35.9429 216.616 31.5883 216.616 26.1209C216.616 20.6535 219.822 16.2989 225.312 16.2989C227.984 16.2505 229.927 17.4117 230.899 18.7181ZM201.896 16.686V18.96C202.77 17.3634 204.713 16.2505 207.531 16.2505C212.049 16.2505 214.478 19.2503 214.478 23.7501V35.4591H209.377V24.3307C209.377 22.1534 208.454 20.6535 206.171 20.6535C203.693 20.6535 202.333 22.2502 202.333 24.7178V35.4591H197.232V16.686H201.896ZM185.232 35.8945C179.742 35.8945 176.682 33.5237 176.682 27.4273V16.686H181.783V27.524C181.783 30.1368 182.949 31.3464 185.232 31.3464C187.516 31.3464 188.681 30.1368 188.681 27.524V16.686H193.783V27.4273C193.783 33.5237 190.722 35.8945 185.232 35.8945ZM159.775 26.0725C159.775 29.4594 161.864 31.3948 164.536 31.3948C167.257 31.3948 169.297 29.411 169.297 26.0725C169.297 22.6856 167.208 20.7502 164.536 20.7502C161.864 20.7502 159.775 22.6856 159.775 26.0725ZM164.585 35.8945C158.561 35.8945 154.674 31.3948 154.674 26.0725C154.674 20.7502 158.512 16.2505 164.585 16.2505C170.609 16.2505 174.496 20.7502 174.496 26.0725C174.496 31.4432 170.609 35.8945 164.585 35.8945ZM139.128 26.0725C139.128 29.1207 140.926 31.3948 143.792 31.3948C146.658 31.3948 148.456 29.1207 148.456 26.0725C148.456 23.0243 146.658 20.7502 143.792 20.7502C140.926 20.7502 139.128 23.0243 139.128 26.0725ZM139.274 33.4753V41.2652C139.274 41.7974 138.934 42.2329 138.399 42.378L134.173 43.4909V16.686H138.885V18.96C140.051 17.2182 142.189 16.2505 144.861 16.2505C150.35 16.2505 153.557 20.6051 153.557 26.0725C153.557 31.5399 150.35 35.8945 144.861 35.8945C142.14 35.8945 140.245 34.7333 139.274 33.4753ZM118.967 24.7661V35.4591H113.865V24.3307C113.865 22.2502 113.088 20.6535 110.853 20.6535C108.473 20.6535 107.161 22.2018 107.161 24.7178V35.5075H102.06V16.686H106.773V18.96C107.647 17.3634 109.493 16.2505 112.214 16.2505C114.789 16.2505 116.586 17.2666 117.703 18.9117C119.355 17.073 121.25 16.2505 123.97 16.2505C128.489 16.2505 130.821 19.3471 130.821 23.7501V35.4591H125.719V24.3307C125.719 22.2502 124.942 20.6535 122.707 20.6535C120.23 20.6051 118.967 22.1534 118.967 24.7661ZM85.0079 26.0725C85.0079 29.4594 87.0969 31.3948 89.7689 31.3948C92.4895 31.3948 94.5299 29.411 94.5299 26.0725C94.5299 22.6856 92.4409 20.7502 89.7689 20.7502C87.0969 20.7502 85.0079 22.6856 85.0079 26.0725ZM89.7689 35.8945C83.7447 35.8945 79.8582 31.3948 79.8582 26.0725C79.8582 20.7502 83.6962 16.2505 89.7689 16.2505C95.8416 16.2505 99.6796 20.7502 99.6796 26.0725C99.6796 31.4432 95.8416 35.8945 89.7689 35.8945ZM53.3811 22.6856C53.3811 14.7506 58.8708 9.47672 66.2067 9.47672C72.5709 9.47672 77.6234 13.2507 78.5951 19.4439H72.9596C72.1823 16.2505 69.6074 14.4603 66.2067 14.4603C61.5428 14.4603 58.9194 17.702 58.9194 22.6856C58.9194 27.6692 61.5428 30.9109 66.2067 30.9109C69.6074 30.9109 72.2309 29.1207 72.9596 25.9274H78.5951C77.6234 32.1206 72.5709 35.8945 66.2067 35.8945C58.8708 35.9429 53.3811 30.669 53.3811 22.6856Z" fill="white"/>
<path fill-rule="evenodd" clip-rule="evenodd" d="M2.06446 40.5268C0.783811 39.7345 0 38.3274 0 36.8121V28.3522C0 27.3478 0.809508 26.5338 1.80319 26.5381C2.12014 26.5381 2.43281 26.6247 2.70693 26.7849L21.5912 37.9161C22.6962 38.5655 23.3772 39.7605 23.3772 41.055V49.8179C23.3815 51.0215 22.4178 52 21.2271 52C20.8288 52 20.4347 51.8874 20.0964 51.6796L2.06446 40.5268ZM30.2131 24.4686C31.3181 25.1181 31.9949 26.3173 31.9992 27.6075V45.3932C31.9992 45.917 31.7208 46.4019 31.2667 46.6574L27.1335 49.0083C27.0821 49.0386 27.0265 49.0603 26.9665 49.0776V39.202C26.9665 37.9248 26.3026 36.7385 25.2147 36.0804L8.63048 26.0532V14.9048C8.63048 13.9003 9.43999 13.0864 10.4337 13.0907C10.7506 13.0907 11.0633 13.1773 11.3374 13.3375L30.2131 24.4686ZM38.4795 11.3329C39.5888 11.9823 40.2699 13.1816 40.2699 14.4761V40.4532C40.2656 40.9857 39.9743 41.475 39.5117 41.7304L35.5927 43.8692V25.7848C35.5927 24.5076 34.9288 23.3257 33.8495 22.6676L16.8969 12.3893V1.81665C16.8969 1.49626 16.9826 1.18021 17.1367 0.90312C17.6379 0.0372175 18.7386 -0.25719 19.5953 0.245033L38.4795 11.3329Z" fill="white"/>
</svg>
