<svg width="276" height="91" viewBox="0 0 276 91" fill="none" xmlns="http://www.w3.org/2000/svg">
<path d="M74.6032 58.9625C74.6032 48.1917 80.3208 42.8292 91.5731 42.8292C96.1472 42.8292 98.8916 43.6542 101.179 44.7083L99.2118 50.1167C96.2844 49.3375 95.0494 49.0167 91.6188 48.9708C86.0384 48.8792 82.1047 52.0417 82.1047 58.55C82.1047 65.0583 86.2214 68.4958 92.4879 68.4958C95.5068 68.4958 97.2907 68.2208 99.6692 67.625L101.224 73.2167C98.2512 74.3167 95.6898 74.7292 91.6646 74.7292C80.4123 74.6833 74.6032 69.1375 74.6032 58.9625ZM122.128 62.3083C122.128 58.4583 121.167 55.525 117.142 55.525C113.208 55.525 112.111 58.4583 112.111 62.3542C112.111 66.4792 113.346 68.9542 117.234 68.9542C121.167 68.9542 122.128 66.3875 122.128 62.3083ZM104.746 62.4917C104.746 54.5625 109.686 49.7042 117.279 49.7042C125.787 49.7042 129.584 54.4708 129.584 62.3083C129.584 70.4667 124.232 74.8208 116.913 74.8208C109 74.775 104.746 70.0083 104.746 62.4917ZM131.916 50.3H139.738L143.763 63.2708L144.998 68.0375L146.371 63.2708L150.853 50.3H158.492L149.206 74.225H140.561L131.916 50.3ZM175.233 68.175V64.4167L171.665 64.5083C169.515 64.5542 167.96 65.2417 167.96 67.0292C167.96 68.45 169.332 69.0458 170.613 69.0458C171.985 69 173.678 68.5875 175.233 68.175ZM160.87 67.4417C160.87 61.3917 166.405 60.1542 171.116 60.1542H175.279V58.6417C175.279 56.5333 173.907 55.9375 170.933 55.9375C168.555 55.9375 166.039 56.4417 163.798 56.9917L162.334 51.675C165.033 50.6208 168.189 49.75 171.985 49.75C179.395 49.75 182.369 51.8583 182.369 57.2667V67.9C182.369 68.6792 183.146 68.8625 184.518 68.9083L184.244 74.4542C183.695 74.5 183.1 74.5 182.552 74.5C179.67 74.5 176.605 73.9958 175.965 71.9792C174.227 73.3542 171.711 74.6833 169.104 74.6833C163.844 74.6375 160.87 72.2083 160.87 67.4417ZM189.962 41.1792H197.28V74.225H189.962V41.1792ZM217.497 59.8333C217.589 56.9458 216.308 54.9292 213.975 54.9292C211.46 54.9292 209.859 56.6708 209.722 59.8333H217.497ZM202.266 62.6292C202.266 52.8667 207.389 49.75 214.616 49.75C222.163 49.75 225.045 54.6542 225.045 61.8958V64.5083H209.539C209.493 68.2667 212.466 69 216.263 69C217.863 69 220.608 68.4958 223.078 68.0375L224.176 73.5833C221.523 74.3625 218.092 74.775 215.21 74.775C207.343 74.775 202.266 72.2083 202.266 62.6292ZM229.985 50.3H237.303V52.7292C238.767 51.6292 241.877 49.7042 245.079 49.7042C252.581 49.7042 253.084 53.8292 253.084 59.2833V74.2708H245.811V59.8792C245.811 56.5792 245.079 56.0292 242.609 56.0292C240.414 56.0292 238.447 56.7167 237.258 57.3125V74.2708H229.939V50.3H229.985ZM260.265 66.8V55.7083H256.789V50.3H260.265V45.3958H267.538V50.3H274.948V55.7083H267.538V66.7542C267.538 68.4958 268.178 68.6333 270.145 68.6333C271.746 68.6333 275.314 68.1292 275.314 68.1292L276 73.8583C274.308 74.3625 271.975 74.6833 270.237 74.6833C265.663 74.7292 260.265 74.9583 260.265 66.8ZM32.9334 40.4V25C14.7285 25 0 39.7583 0 58C0 76.2417 14.7285 91 32.9334 91V75.6C23.2363 75.6 15.3689 67.7167 15.3689 58C15.3689 48.2375 23.2363 40.4 32.9334 40.4Z" fill="white"/>
<path d="M50.5894 40.4C49.5831 40.4 48.5768 40.2166 47.662 39.8041C46.7472 39.3916 45.8781 38.8416 45.192 38.1541C44.4601 37.4208 43.9112 36.5958 43.5453 35.6791C43.1794 34.7624 42.9507 33.7541 42.9507 32.7458C42.9507 31.7374 43.1336 30.7291 43.5453 29.8124C43.9112 28.8958 44.5059 28.0249 45.192 27.3374C45.9238 26.6041 46.7472 26.0541 47.662 25.6874C48.5768 25.3208 49.5831 25.0916 50.5894 25.0916C52.6477 25.0916 54.5688 25.9166 56.0326 27.3374C57.4505 28.7583 58.2738 30.7291 58.2738 32.7916C58.2738 34.8541 57.4505 36.7791 56.0326 38.2458C54.5688 39.5749 52.602 40.4 50.5894 40.4Z" fill="white"/>
<path d="M50.452 91C48.3937 91 46.4726 90.175 45.0089 88.7541C43.5909 87.3333 42.7676 85.3625 42.7676 83.3C42.7676 81.2375 43.5909 79.3125 45.0089 77.8458C46.4268 76.425 48.3937 75.6 50.452 75.6C52.5104 75.6 54.4315 76.425 55.8952 77.8458C57.3132 79.2666 58.1365 81.2375 58.1365 83.3C58.1365 85.3625 57.3132 87.2875 55.8952 88.7541C54.4315 90.175 52.4646 91 50.452 91Z" fill="white"/>
<path d="M50.4979 58C50.4979 67.7166 42.6305 75.6 32.9335 75.6V40.4C42.6305 40.4 50.4979 48.2375 50.4979 58Z" fill="white"/>
<path d="M146.587 22V5.9H153.096C154.108 5.9 154.997 6.09933 155.764 6.498C156.531 6.89667 157.136 7.464 157.581 8.2C158.026 8.92067 158.248 9.77933 158.248 10.776V11.098C158.248 12.0793 158.018 12.938 157.558 13.674C157.113 14.41 156.5 14.9773 155.718 15.376C154.951 15.7747 154.077 15.974 153.096 15.974H149.37V22H146.587ZM149.37 13.467H152.82C153.617 13.467 154.254 13.2523 154.729 12.823C155.22 12.3937 155.465 11.8033 155.465 11.052V10.822C155.465 10.0707 155.227 9.48033 154.752 9.051C154.277 8.62167 153.633 8.407 152.82 8.407H149.37V13.467ZM165.627 22.322C164.493 22.322 163.473 22.092 162.568 21.632C161.679 21.1567 160.974 20.4897 160.452 19.631C159.946 18.757 159.693 17.7143 159.693 16.503V16.135C159.693 14.9237 159.946 13.881 160.452 13.007C160.974 12.133 161.679 11.466 162.568 11.006C163.473 10.546 164.493 10.316 165.627 10.316C166.762 10.316 167.774 10.546 168.663 11.006C169.553 11.466 170.25 12.133 170.756 13.007C171.278 13.881 171.538 14.9237 171.538 16.135V16.503C171.538 17.7143 171.278 18.757 170.756 19.631C170.25 20.4897 169.553 21.1567 168.663 21.632C167.774 22.092 166.762 22.322 165.627 22.322ZM165.627 19.976C166.593 19.976 167.383 19.6693 167.996 19.056C168.61 18.4273 168.916 17.5533 168.916 16.434V16.204C168.916 15.0847 168.61 14.2183 167.996 13.605C167.383 12.9763 166.593 12.662 165.627 12.662C164.661 12.662 163.872 12.9763 163.258 13.605C162.645 14.2183 162.338 15.0847 162.338 16.204V16.434C162.338 17.5533 162.645 18.4273 163.258 19.056C163.872 19.6693 164.661 19.976 165.627 19.976ZM175.342 22L173.571 10.638H176.193L177.412 20.229H177.803L179.528 10.638H183.76L185.485 20.229H185.876L187.095 10.638H189.717L187.946 22H183.553L181.851 12.409H181.46L179.735 22H175.342ZM197.495 22.322C196.36 22.322 195.356 22.0843 194.482 21.609C193.623 21.1183 192.949 20.436 192.458 19.562C191.983 18.6727 191.745 17.6377 191.745 16.457V16.181C191.745 14.985 191.983 13.95 192.458 13.076C192.933 12.202 193.6 11.5273 194.459 11.052C195.318 10.5613 196.307 10.316 197.426 10.316C198.53 10.316 199.496 10.5613 200.324 11.052C201.152 11.5273 201.796 12.202 202.256 13.076C202.716 13.95 202.946 14.9697 202.946 16.135V17.078H194.413C194.444 17.9673 194.758 18.6803 195.356 19.217C195.954 19.7537 196.69 20.022 197.564 20.022C198.423 20.022 199.059 19.838 199.473 19.47C199.887 19.0867 200.201 18.6573 200.416 18.182L202.601 19.309C202.386 19.723 202.072 20.1677 201.658 20.643C201.259 21.103 200.723 21.5017 200.048 21.839C199.373 22.161 198.522 22.322 197.495 22.322ZM194.436 15.077H200.255C200.194 14.3257 199.902 13.7277 199.381 13.283C198.875 12.8383 198.216 12.616 197.403 12.616C196.56 12.616 195.885 12.8383 195.379 13.283C194.873 13.7277 194.559 14.3257 194.436 15.077ZM205.661 22V10.638H208.26V11.949H208.651C208.82 11.4737 209.104 11.1287 209.502 10.914C209.901 10.6993 210.376 10.592 210.928 10.592H212.308V12.938H210.882C210.116 12.938 209.495 13.145 209.019 13.559C208.544 13.9577 208.306 14.5787 208.306 15.422V22H205.661ZM219.44 22.322C218.305 22.322 217.301 22.0843 216.427 21.609C215.568 21.1183 214.893 20.436 214.403 19.562C213.927 18.6727 213.69 17.6377 213.69 16.457V16.181C213.69 14.985 213.927 13.95 214.403 13.076C214.878 12.202 215.545 11.5273 216.404 11.052C217.262 10.5613 218.251 10.316 219.371 10.316C220.475 10.316 221.441 10.5613 222.269 11.052C223.097 11.5273 223.741 12.202 224.201 13.076C224.661 13.95 224.891 14.9697 224.891 16.135V17.078H216.358C216.388 17.9673 216.703 18.6803 217.301 19.217C217.899 19.7537 218.635 20.022 219.509 20.022C220.367 20.022 221.004 19.838 221.418 19.47C221.832 19.0867 222.146 18.6573 222.361 18.182L224.546 19.309C224.331 19.723 224.017 20.1677 223.603 20.643C223.204 21.103 222.667 21.5017 221.993 21.839C221.318 22.161 220.467 22.322 219.44 22.322ZM216.381 15.077H222.2C222.138 14.3257 221.847 13.7277 221.326 13.283C220.82 12.8383 220.16 12.616 219.348 12.616C218.504 12.616 217.83 12.8383 217.324 13.283C216.818 13.7277 216.503 14.3257 216.381 15.077ZM232.252 22.322C231.332 22.322 230.473 22.0997 229.676 21.655C228.878 21.195 228.242 20.528 227.767 19.654C227.291 18.78 227.054 17.7297 227.054 16.503V16.135C227.054 14.9083 227.291 13.858 227.767 12.984C228.242 12.11 228.871 11.4507 229.653 11.006C230.45 10.546 231.316 10.316 232.252 10.316C232.957 10.316 233.555 10.4003 234.046 10.569C234.536 10.7377 234.927 10.9523 235.219 11.213C235.525 11.4737 235.763 11.7573 235.932 12.064H236.323V5.9H238.945V22H236.369V20.505H235.978C235.702 20.965 235.28 21.3867 234.713 21.77C234.145 22.138 233.325 22.322 232.252 22.322ZM233.034 20.022C233.984 20.022 234.774 19.7153 235.403 19.102C236.031 18.4733 236.346 17.584 236.346 16.434V16.204C236.346 15.0387 236.031 14.1493 235.403 13.536C234.789 12.9227 234 12.616 233.034 12.616C232.083 12.616 231.286 12.9227 230.642 13.536C230.013 14.1493 229.699 15.0387 229.699 16.204V16.434C229.699 17.584 230.013 18.4733 230.642 19.102C231.286 19.7153 232.083 20.022 233.034 20.022ZM254.874 22.322C253.8 22.322 252.972 22.138 252.39 21.77C251.822 21.3867 251.408 20.965 251.148 20.505H250.757V22H248.158V5.9H250.803V12.064H251.194C251.362 11.7573 251.592 11.4737 251.884 11.213C252.19 10.9523 252.581 10.7377 253.057 10.569C253.547 10.4003 254.153 10.316 254.874 10.316C255.809 10.316 256.668 10.546 257.45 11.006C258.232 11.4507 258.86 12.11 259.336 12.984C259.811 13.858 260.049 14.9083 260.049 16.135V16.503C260.049 17.7297 259.811 18.78 259.336 19.654C258.86 20.528 258.224 21.195 257.427 21.655C256.645 22.0997 255.794 22.322 254.874 22.322ZM254.092 20.022C255.042 20.022 255.832 19.7153 256.461 19.102C257.089 18.4733 257.404 17.584 257.404 16.434V16.204C257.404 15.0387 257.089 14.1493 256.461 13.536C255.847 12.9227 255.058 12.616 254.092 12.616C253.141 12.616 252.344 12.9227 251.7 13.536C251.071 14.1493 250.757 15.0387 250.757 16.204V16.434C250.757 17.584 251.071 18.4733 251.7 19.102C252.344 19.7153 253.141 20.022 254.092 20.022ZM264.112 26.6V24.3H270.391C270.82 24.3 271.035 24.07 271.035 23.61V20.436H270.644C270.521 20.712 270.322 20.988 270.046 21.264C269.77 21.5247 269.402 21.747 268.942 21.931C268.482 22.0997 267.899 22.184 267.194 22.184C266.32 22.184 265.546 21.9923 264.871 21.609C264.196 21.2103 263.675 20.6583 263.307 19.953C262.939 19.2323 262.755 18.3967 262.755 17.446V10.638H265.377V17.239C265.377 18.159 265.599 18.8413 266.044 19.286C266.504 19.7307 267.148 19.953 267.976 19.953C268.911 19.953 269.647 19.6463 270.184 19.033C270.736 18.4197 271.012 17.538 271.012 16.388V10.638H273.634V24.162C273.634 24.9133 273.419 25.5037 272.99 25.933C272.561 26.3777 271.978 26.6 271.242 26.6H264.112Z" fill="white"/>
</svg>
