<svg width="52" height="52" viewBox="0 0 52 52" fill="none" xmlns="http://www.w3.org/2000/svg">
<path fill-rule="evenodd" clip-rule="evenodd" d="M26.5137 10C17.382 10 10 17.3333 10 26.4056C10 33.6576 14.7299 39.7962 21.2916 41.9689C22.1119 42.1322 22.4124 41.6159 22.4124 41.1815C22.4124 40.8012 22.3854 39.4975 22.3854 38.1392C17.7917 39.1172 16.8351 36.1836 16.8351 36.1836C16.0969 34.2822 15.003 33.7936 15.003 33.7936C13.4995 32.7886 15.1126 32.7886 15.1126 32.7886C16.7804 32.8972 17.6555 34.4726 17.6555 34.4726C19.1316 36.9712 21.5103 36.2652 22.4672 35.8306C22.6038 34.7712 23.0415 34.0379 23.5063 33.6306C19.8425 33.2502 15.9877 31.8379 15.9877 25.5363C15.9877 23.7436 16.6435 22.2769 17.6825 21.1363C17.5186 20.729 16.9443 19.0446 17.8468 16.7903C17.8468 16.7903 19.2411 16.3556 22.3851 18.4743C23.7311 18.1152 25.1192 17.9325 26.5137 17.931C27.908 17.931 29.3294 18.1213 30.6419 18.4743C33.7862 16.3556 35.1805 16.7903 35.1805 16.7903C36.083 19.0446 35.5084 20.729 35.3444 21.1363C36.4109 22.2769 37.0396 23.7436 37.0396 25.5363C37.0396 31.8379 33.1848 33.2229 29.4936 33.6306C30.0953 34.1466 30.6145 35.1242 30.6145 36.6726C30.6145 38.8725 30.5875 40.6382 30.5875 41.1812C30.5875 41.6159 30.8883 42.1322 31.7084 41.9692C38.27 39.7959 42.9999 33.6576 42.9999 26.4056C43.027 17.3333 35.6179 10 26.5137 10Z" fill="white"/>
</svg>
