<svg width="428" height="428" viewBox="0 0 428 428" fill="none" xmlns="http://www.w3.org/2000/svg">
<path fill-rule="evenodd" clip-rule="evenodd" d="M333.804 0.854434C293.133 8.6444 264.516 44.1942 266.736 84.1719C268.619 118.066 289.659 146.333 321.102 157.21C335.287 162.118 354.873 162.906 367.839 159.091C370.085 158.43 372.196 157.889 372.532 157.889C373.306 157.889 375.227 163.185 377.339 171.141C387.502 209.435 383.293 251.695 365.728 287.691C337.377 345.794 279.53 382.398 215.725 382.609C208.21 382.633 204.33 382.948 204.313 383.535C204.3 384.023 203.777 392.81 203.151 403.06C202.526 413.31 202.147 421.834 202.309 422.002C202.97 422.688 229.066 422.139 236.508 421.283C300.019 413.974 354.939 380.011 389.705 326.544C402.654 306.629 413.113 281.093 418.071 257.282C425.892 219.727 423.057 179.055 410.13 143.336L407.232 135.329L409.624 132.605C417.821 123.268 424.775 108.643 427.088 95.8755C428.45 88.3589 428.257 72.5329 426.706 64.4995C420.892 34.3865 397.464 9.98291 366.798 2.09437C358.405 -0.0649554 341.85 -0.686995 333.804 0.854434ZM198.127 6.28464C162.308 9.02541 124.696 22.3707 95.852 42.5716C50.5894 74.2723 20.7541 119.595 9.85334 173.212C2.41998 209.775 5.44185 249.941 18.2705 285.089L21.0133 292.603L16.5472 298.296C0.727267 318.466 -4.19021 346.699 3.71022 371.999C12.3485 399.661 35.6639 420.816 63.9241 426.635C71.6961 428.235 87.3852 428.475 94.8914 427.108C123.807 421.842 147.818 401.431 157.284 374.07C162.604 358.694 162.986 340.778 158.337 324.733C150.301 296.997 128.084 275.862 99.4428 268.71C89.9218 266.332 72.9011 266.172 63.5547 268.371C60.1386 269.175 56.8104 269.898 56.1578 269.977C53.6618 270.28 47.8839 247.027 46.1092 229.535C44.9688 218.298 45.4872 201.551 47.353 189.363C55.4489 136.48 88.0808 90.2109 134.944 65.167C158.583 52.5349 181.802 46.5283 210.549 45.6089C223.524 45.1939 223.804 45.1467 224.044 43.3195C224.564 39.3595 226.393 6.70789 226.115 6.35836C225.581 5.68828 206.571 5.63775 198.127 6.28464ZM336.84 40.8918C316.594 46.3949 303.162 67.5194 306.948 87.8992C310.976 109.578 331.57 124.645 352.989 121.585C371.327 118.965 385.438 104.934 388.309 86.4671C391.292 67.2792 379.394 48.1948 360.324 41.5793C354.184 39.449 343.318 39.1309 336.84 40.8918ZM201.439 154.108C188.714 157.087 180.541 161.661 171.137 171.066C163.255 178.95 158.999 185.747 155.618 195.851C153.723 201.513 153.494 203.504 153.503 214.212C153.513 225.124 153.721 226.827 155.783 232.848C159.118 242.585 163.921 250.154 171.609 257.796C177.094 263.247 179.854 265.247 186.181 268.355C196.947 273.644 202.717 275.012 214.276 275.012C225.526 275.012 231.615 273.634 241.19 268.924C257.106 261.094 269.098 246.393 273.658 229.121C275.851 220.813 275.615 205.617 273.169 197.646C269.781 186.603 265.222 178.96 257.359 171.141C249.172 163 243.613 159.476 233.513 156.024C227.433 153.945 224.704 153.504 216.346 153.249C209.717 153.046 204.754 153.332 201.439 154.108ZM74.3205 306.74C59.1341 309.402 46.8976 319.776 41.9031 334.225C36.7686 349.075 40.5259 364.962 51.9128 376.552C57.7934 382.538 62.4997 385.252 70.5906 387.322C78.3071 389.295 82.847 389.385 89.9781 387.703C104.187 384.354 115.287 374.251 119.8 360.561C122.361 352.792 122.739 347.191 121.204 339.768C117.813 323.366 105.413 310.752 89.328 307.342C84.0055 306.214 78.5647 305.995 74.3205 306.74Z" fill="white"/>
</svg>
