<svg width="205" height="52" viewBox="0 0 205 52" fill="none" xmlns="http://www.w3.org/2000/svg">
<path fill-rule="evenodd" clip-rule="evenodd" d="M18.0978 0L31.5551 20.303L18.0978 27.8571L4.64038 20.303L18.0978 0ZM8.75703 19.3384L18.0978 5.25298L27.4384 19.3384L18.0978 24.5797L8.75703 19.3384Z" fill="white"/>
<path d="M18.0936 31.9589L3.24478 23.2142L2.84408 23.8521C-1.72392 31.0891 -0.704994 40.5645 5.29408 46.6418C12.3579 53.786 23.8179 53.786 30.8932 46.6418C36.9037 40.5645 37.9227 31.0891 33.3432 23.8521L32.9425 23.2142L18.0936 31.9589Z" fill="white"/>
<path d="M78.1793 41.2005H59.2747V10.7996H65.0422V35.8379H78.1793V41.2005Z" fill="white"/>
<path d="M107.171 41.2005H101.403V10.7996H107.171V41.2005Z" fill="white"/>
<path d="M130.548 41.2005V10.7996H140.429C141.929 10.7996 143.146 10.8506 144.069 10.9656C146.454 11.2465 148.516 12.0892 150.234 13.4809C151.978 14.8726 153.297 16.6602 154.194 18.8435C155.105 21.0141 155.553 23.4017 155.553 26.0064C155.553 28.6112 155.105 30.9987 154.194 33.1821C153.285 35.3526 151.965 37.1275 150.234 38.5192C148.504 39.9109 146.454 40.7536 144.069 41.0344C143.134 41.1495 141.917 41.2005 140.429 41.2005H130.548ZM140.429 35.7996C141.929 35.7996 143.031 35.723 143.737 35.5826C145.005 35.3271 146.068 34.727 146.915 33.7822C147.773 32.8246 148.414 31.6755 148.824 30.322C149.247 28.9558 149.466 27.513 149.466 25.9937C149.466 24.4743 149.247 22.9677 148.812 21.6015C148.389 20.2353 147.748 19.0861 146.876 18.1541C146.031 17.222 144.98 16.6347 143.737 16.4048C143.031 16.2643 141.929 16.1877 140.429 16.1877H136.405V35.7868H140.429V35.7996Z" fill="white"/>
<path d="M190.197 41.8389C187.186 41.8389 184.57 41.1878 182.327 39.8727C180.098 38.5448 178.381 36.6934 177.175 34.2931C175.984 31.9054 175.394 29.1347 175.394 25.9938C175.394 22.8528 175.984 20.0821 177.175 17.6945C178.381 15.3069 180.098 13.4555 182.327 12.1403C184.558 10.8124 187.186 10.1613 190.197 10.1613C193.209 10.1613 195.823 10.8252 198.066 12.1403C200.297 13.4555 202.014 15.3069 203.194 17.6945C204.398 20.0821 205 22.8528 205 25.9938C205 29.1347 204.398 31.9054 203.194 34.2931C202.002 36.6807 200.297 38.5448 198.066 39.8727C195.836 41.1878 193.209 41.8389 190.197 41.8389ZM190.363 36.4381C192.235 36.4381 193.798 36.0039 195.068 35.1485C196.336 34.2931 197.298 33.0801 197.926 31.5224C198.567 29.9646 198.874 28.126 198.874 26.0065C198.874 22.7379 198.131 20.1843 196.631 18.3457C195.132 16.507 192.928 15.575 190.018 15.575C188.147 15.575 186.583 16.0091 185.315 16.8646C184.045 17.72 183.084 18.933 182.456 20.4907C181.814 22.0484 181.508 23.887 181.508 26.0065C181.508 29.2751 182.251 31.8288 183.751 33.6674C185.249 35.506 187.455 36.4381 190.363 36.4381Z" fill="white"/>
</svg>
