<svg width="178" height="50" viewBox="0 0 178 50" fill="none" xmlns="http://www.w3.org/2000/svg">
<path d="M61.8047 33.1758V16.8047H72.1992V19.1953H64.1953V23.6016H70.1953V26.0039H64.1953V30.7969H72.1992V33.1758H61.8047ZM83.7188 33.1758V26.0039C83.7188 25.1914 83.4219 24.4883 82.8281 23.8945C82.2344 23.3008 81.5312 23.0039 80.7188 23.0039C79.9062 23.0039 79.2031 23.3008 78.6094 23.8945C78.0156 24.4883 77.7188 25.1914 77.7188 26.0039V33.1758H75.3164V26.0039C75.3164 24.5742 75.8594 23.3164 76.9453 22.2305C78.0312 21.1445 79.2891 20.6016 80.7188 20.6016C82.1406 20.6016 83.3945 21.1445 84.4805 22.2305C85.5742 23.3242 86.1211 24.582 86.1211 26.0039V33.1758H83.7188ZM98.625 27C98.625 25.9141 98.2305 24.9766 97.4414 24.1875C96.6523 23.3984 95.7109 23.0039 94.6172 23.0039C93.5234 23.0039 92.582 23.3984 91.793 24.1875C91.0117 24.9688 90.6211 25.9062 90.6211 27C90.6211 28.1016 91.0117 29.043 91.793 29.8242C92.5742 30.6055 93.5156 30.9961 94.6172 30.9961C95.7188 30.9961 96.6602 30.6055 97.4414 29.8242C98.2305 29.0352 98.625 28.0938 98.625 27ZM101.027 31.8047C101.027 33.5391 100.395 35.0312 99.1289 36.2812C97.8711 37.5469 96.3672 38.1797 94.6172 38.1797C93.5312 38.1797 92.5 37.9023 91.5234 37.3477C91.0391 37.0742 90.6016 36.75 90.2109 36.375C89.8203 36.0078 89.4688 35.5898 89.1562 35.1211L91.1836 33.7969C92.0586 35.1172 93.2031 35.7773 94.6172 35.7773C95.8047 35.7773 96.7539 35.3867 97.4648 34.6055C98.1289 33.8711 98.5078 32.9102 98.6016 31.7227C97.4141 32.8242 96.0195 33.375 94.418 33.375C92.6992 33.375 91.2344 32.7461 90.0234 31.4883C88.8203 30.2383 88.2188 28.7422 88.2188 27C88.2188 25.25 88.8477 23.7461 90.1055 22.4883C91.3789 21.2305 92.8828 20.6016 94.6172 20.6016C96.3672 20.6016 97.8711 21.2305 99.1289 22.4883C100.395 23.7461 101.027 25.25 101.027 27V31.8047ZM112.066 23.918C111.301 23.3086 110.449 23.0039 109.512 23.0039C108.402 23.0039 107.461 23.3984 106.688 24.1875C105.914 24.9766 105.527 25.9219 105.527 27.0234C105.527 27.3359 105.582 27.6797 105.691 28.0547L112.066 23.918ZM115.934 26.8359C115.926 28.6406 115.309 30.1836 114.082 31.4648C112.863 32.7383 111.352 33.375 109.547 33.375C107.766 33.375 106.25 32.7617 105 31.5352C103.75 30.3086 103.125 28.8047 103.125 27.0234C103.125 25.2578 103.746 23.7461 104.988 22.4883C106.23 21.2305 107.738 20.6016 109.512 20.6016C110.809 20.6016 111.992 20.9609 113.062 21.6797C114.133 22.3984 114.934 23.3633 115.465 24.5742L106.992 30.082C107.75 30.6914 108.602 30.9961 109.547 30.9961C110.688 30.9961 111.629 30.5898 112.371 29.7773C113.121 28.957 113.5 27.9766 113.508 26.8359H115.934ZM118.547 33.1758V16.8047H120.938V30.7969H128.941V33.1758H118.547ZM139.945 27C139.945 25.9141 139.551 24.9766 138.762 24.1875C137.973 23.3984 137.031 23.0039 135.938 23.0039C134.844 23.0039 133.902 23.3984 133.113 24.1875C132.332 24.9688 131.941 25.9062 131.941 27C131.941 28.1016 132.332 29.043 133.113 29.8242C133.895 30.6055 134.836 30.9961 135.938 30.9961C137.039 30.9961 137.98 30.6055 138.762 29.8242C139.551 29.0352 139.945 28.0938 139.945 27ZM139.945 33.1758V31.6992C138.758 32.8164 137.355 33.375 135.738 33.375C134.02 33.375 132.555 32.7461 131.344 31.4883C130.141 30.2383 129.539 28.7422 129.539 27C129.539 25.2422 130.164 23.7383 131.414 22.4883C132.672 21.2305 134.18 20.6016 135.938 20.6016C137.695 20.6016 139.203 21.2305 140.461 22.4883C141.719 23.7461 142.348 25.25 142.348 27V33.1758H139.945ZM145.523 37.1836H142.711L145.453 32.9414V20.8008H147.844V29.2383L153.352 20.8008H156.188L145.523 37.1836ZM164.566 23.918C163.801 23.3086 162.949 23.0039 162.012 23.0039C160.902 23.0039 159.961 23.3984 159.188 24.1875C158.414 24.9766 158.027 25.9219 158.027 27.0234C158.027 27.3359 158.082 27.6797 158.191 28.0547L164.566 23.918ZM168.434 26.8359C168.426 28.6406 167.809 30.1836 166.582 31.4648C165.363 32.7383 163.852 33.375 162.047 33.375C160.266 33.375 158.75 32.7617 157.5 31.5352C156.25 30.3086 155.625 28.8047 155.625 27.0234C155.625 25.2578 156.246 23.7461 157.488 22.4883C158.73 21.2305 160.238 20.6016 162.012 20.6016C163.309 20.6016 164.492 20.9609 165.562 21.6797C166.633 22.3984 167.434 23.3633 167.965 24.5742L159.492 30.082C160.25 30.6914 161.102 30.9961 162.047 30.9961C163.188 30.9961 164.129 30.5898 164.871 29.7773C165.621 28.957 166 27.9766 166.008 26.8359H168.434ZM176.145 23.0039C175.254 23.0039 174.5 23.2891 173.883 23.8594C173.258 24.4219 172.945 25.1367 172.945 26.0039V33.1758H170.543V26.0039C170.543 24.5195 171.102 23.2539 172.219 22.207C173.352 21.1445 174.66 20.6094 176.145 20.6016V23.0039Z" fill="white"/>
<path fill-rule="evenodd" clip-rule="evenodd" d="M36.2775 5.15053C32.4466 5.88415 29.7512 9.23205 29.9604 12.9969C30.1377 16.1889 32.1195 18.8509 35.0811 19.8753C36.4172 20.3375 38.2621 20.4117 39.4833 20.0524C39.6949 19.9902 39.8938 19.9392 39.9254 19.9392C39.9983 19.9392 40.1793 20.438 40.3782 21.1873C41.3354 24.7936 40.9389 28.7734 39.2845 32.1633C36.614 37.6352 31.1654 41.0824 25.1555 41.1022C24.4477 41.1045 24.0822 41.1342 24.0807 41.1894C24.0794 41.2354 24.0302 42.0629 23.9712 43.0281C23.9123 43.9934 23.8766 44.7962 23.8919 44.8121C23.9541 44.8767 26.4122 44.8249 27.1131 44.7443C33.0953 44.056 38.2683 40.8576 41.5429 35.8223C42.7626 33.9468 43.7477 31.542 44.2147 29.2996C44.9514 25.7629 44.6844 21.9325 43.4668 18.5687L43.1938 17.8147L43.4191 17.5581C44.1912 16.6788 44.8462 15.3015 45.064 14.0991C45.1924 13.3913 45.1742 11.9008 45.0281 11.1443C44.4804 8.30841 42.2738 6.01021 39.3853 5.26731C38.5948 5.06395 37.0354 5.00537 36.2775 5.15053ZM23.498 5.66192C20.1242 5.92004 16.5814 7.17682 13.8646 9.07924C9.60125 12.0647 6.79103 16.3329 5.76428 21.3823C5.06412 24.8256 5.34876 28.6082 6.5571 31.9182L6.81545 32.6259L6.39478 33.162C4.90468 35.0615 4.4415 37.7203 5.18565 40.103C5.9993 42.7081 8.1954 44.7004 10.8573 45.2483C11.5893 45.3991 13.0671 45.4216 13.7741 45.2929C16.4977 44.797 18.7594 42.8748 19.6509 40.298C20.152 38.85 20.188 37.1628 19.7502 35.6518C18.9932 33.0397 16.9005 31.0494 14.2028 30.3758C13.306 30.1519 11.7028 30.1367 10.8225 30.3439C10.5007 30.4196 10.1872 30.4877 10.1257 30.4951C9.89064 30.5236 9.34642 28.3338 9.17925 26.6865C9.07184 25.6282 9.12067 24.0511 9.29641 22.9033C10.059 17.9231 13.1326 13.5657 17.5467 11.2072C19.7732 10.0175 21.9603 9.45186 24.668 9.36528C25.8902 9.3262 25.9165 9.32175 25.9392 9.14968C25.9881 8.77674 26.1604 5.70178 26.1342 5.66887C26.0839 5.60576 24.2934 5.601 23.498 5.66192ZM36.5635 8.92105C34.6566 9.4393 33.3913 11.4287 33.748 13.348C34.1274 15.3895 36.0671 16.8085 38.0846 16.5203C39.8119 16.2736 41.141 14.9523 41.4114 13.2131C41.6924 11.4061 40.5717 9.6088 38.7755 8.98579C38.1972 8.78517 37.1736 8.75522 36.5635 8.92105ZM23.81 19.5831C22.6114 19.8637 21.8416 20.2944 20.9558 21.1802C20.2133 21.9227 19.8125 22.5628 19.494 23.5143C19.3155 24.0476 19.2939 24.235 19.2948 25.2434C19.2957 26.2711 19.3153 26.4315 19.5096 26.9985C19.8237 27.9154 20.2761 28.6283 21.0002 29.348C21.5169 29.8613 21.7768 30.0497 22.3728 30.3423C23.3868 30.8405 23.9303 30.9693 25.019 30.9693C26.0787 30.9693 26.6523 30.8395 27.5541 30.3959C29.0533 29.6586 30.1828 28.2741 30.6123 26.6475C30.8189 25.8651 30.7966 24.434 30.5663 23.6834C30.2471 22.6434 29.8177 21.9236 29.0771 21.1873C28.306 20.4206 27.7824 20.0887 26.831 19.7636C26.2584 19.5678 26.0013 19.5263 25.214 19.5022C24.5896 19.4831 24.1222 19.5101 23.81 19.5831ZM11.8365 33.9572C10.4061 34.2079 9.25351 35.1849 8.78308 36.5456C8.29946 37.9441 8.65336 39.4403 9.7259 40.5318C10.2798 41.0955 10.7231 41.3511 11.4852 41.546C12.212 41.7319 12.6396 41.7403 13.3113 41.582C14.6497 41.2665 15.6952 40.3151 16.1203 39.0258C16.3615 38.2942 16.3971 37.7668 16.2525 37.0677C15.9331 35.523 14.7651 34.3351 13.2501 34.014C12.7488 33.9077 12.2363 33.8871 11.8365 33.9572Z" fill="white"/>
</svg>
